<svg width="99" height="48" viewBox="0 0 99 48" fill="none" xmlns="http://www.w3.org/2000/svg">
<path d="M46.1586 30.1021C46.1427 30.162 46.1266 30.2219 46.1102 30.2818C42.6095 43.0711 29.6459 50.6264 17.1553 47.1571C4.66459 43.6878 -2.62325 30.5075 0.877424 17.7182C4.3781 4.92891 17.3416 -2.62643 29.8323 0.842901C29.8908 0.859148 29.9492 0.875608 30.0075 0.892279L25.7814 16.3317C25.7235 16.3142 25.6652 16.2972 25.6066 16.281C21.4431 15.1245 17.1219 17.643 15.955 21.9061C14.7881 26.1692 17.2174 30.5626 21.3809 31.719C25.5445 32.8755 29.8657 30.357 31.0326 26.0939C31.049 26.0339 31.0647 25.9739 31.0797 25.9139L46.1586 30.1021Z" fill="#C821D3"/>
<path d="M36.323 8.18754L43.4055 9.48088L37.2941 18.5996L33.1626 17.8452L36.323 8.18754Z" fill="#75BD33"/>
<path d="M54.8369 47.5559C54.4873 47.415 54.0794 47.2154 53.6132 46.9571C53.147 46.7223 52.7041 46.4053 52.2845 46.0062C51.865 45.607 51.5386 45.1256 51.3055 44.5621C51.0724 43.8812 50.9093 43.212 50.816 42.5545C50.7461 41.897 50.7228 41.1339 50.7461 40.2651C50.7461 39.0441 50.8277 37.9875 50.9909 37.0952C51.1773 36.1795 51.4571 35.252 51.83 34.3128C51.8766 34.2423 51.9582 34.0427 52.0748 33.714C52.2146 33.3618 52.3661 32.9861 52.5293 32.5869C52.7158 32.1878 52.8556 31.8825 52.9489 31.6712C53.1353 31.272 53.4151 30.7437 53.788 30.0862C54.1843 29.4053 54.6038 28.7478 55.0467 28.1138C55.7227 27.1042 56.2938 26.2824 56.76 25.6484C57.2262 24.9909 57.669 24.4391 58.0886 23.993C58.5315 23.5468 59.0093 23.1125 59.5222 22.6898C60.0583 22.2671 60.7226 21.7858 61.5151 21.2457C62.0279 20.87 62.6806 20.6352 63.4731 20.5413C64.289 20.4474 65.0815 20.5765 65.8507 20.9287C66.6199 21.2575 67.191 21.8915 67.5639 22.8307C67.8204 23.3238 67.9369 23.946 67.9136 24.6974C67.8903 25.4253 67.7504 26.2119 67.494 27.0572C67.2376 27.879 66.9113 28.6539 66.515 29.3818C66.1188 30.1097 65.6759 30.6967 65.1864 31.1429C64.8834 31.4246 64.4754 31.4716 63.9626 31.2837C63.4731 31.0959 63.0652 30.8494 62.7389 30.5441C62.5291 30.1449 62.4125 29.9101 62.3892 29.8397C62.3892 29.7692 62.4358 29.7223 62.5291 29.6988C62.6689 29.5344 62.8554 29.2527 63.0885 28.8535C63.3216 28.4543 63.5547 28.0317 63.7878 27.5855C64.0209 27.1159 64.1841 26.7402 64.2773 26.4585C64.4638 25.4723 64.592 24.8265 64.6619 24.5213C64.7318 24.1926 64.6619 23.9225 64.4521 23.7112C64.3589 23.6173 64.219 23.5821 64.0326 23.6056C63.8694 23.629 63.5897 23.7464 63.1934 23.9578C62.6573 24.1926 62.0163 24.6739 61.2704 25.4018C60.5478 26.1062 59.8252 26.9516 59.1026 27.9377C58.1702 29.1822 57.3893 30.2858 56.76 31.2485C56.1306 32.2112 55.6528 33.1974 55.3264 34.2071C55.2798 34.301 55.1982 34.4771 55.0817 34.7354C54.9884 34.9937 54.9418 35.1228 54.9418 35.1228C54.9651 35.2168 54.9302 35.4516 54.8369 35.8273C54.7437 36.1795 54.6388 36.4847 54.5223 36.743C54.2659 37.8231 54.1143 38.868 54.0677 39.8777C54.0211 40.8639 54.0794 41.7327 54.2425 42.4841C54.429 43.212 54.6971 43.752 55.0467 44.1042C55.3497 44.3156 55.7344 44.386 56.2005 44.3156C56.6667 44.2451 57.2029 44.0807 57.8089 43.8225C58.415 43.5642 59.0676 43.2824 59.7669 42.9772C60.3263 42.7423 60.8391 42.4841 61.3053 42.2023C61.7715 41.9205 62.1212 41.674 62.3543 41.4626C62.5407 41.3218 62.7738 41.1809 63.0536 41.04C63.3566 40.8756 63.613 40.7934 63.8228 40.7934C64.1491 40.676 64.3938 40.77 64.557 41.0752C64.7202 41.3805 64.8018 41.7679 64.8018 42.2375C64.8018 42.5662 64.5687 42.9654 64.1025 43.435C63.6363 43.9046 63.1235 44.3038 62.5641 44.6325C62.3776 44.8204 62.1212 44.9965 61.7948 45.1609C61.4918 45.3017 61.1771 45.4309 60.8508 45.5483C60.3613 45.924 59.7553 46.2879 59.0327 46.6401C58.3101 46.9924 57.5758 47.2624 56.8299 47.4502C56.1073 47.6381 55.443 47.6733 54.8369 47.5559Z" fill="#C821D3"/>
<path d="M69.6465 44.9848C69.3435 44.9848 69.0987 44.9261 68.9123 44.8087C68.7491 44.6912 68.5393 44.5269 68.2829 44.3156C67.84 43.8459 67.4787 43.3411 67.199 42.801C66.9426 42.261 66.8494 41.7914 66.9193 41.3922C66.9892 41.2044 67.0125 41.0283 66.9892 40.8639C66.9892 40.676 66.9892 40.5821 66.9892 40.5821C66.8727 40.4647 66.8377 40.3943 66.8843 40.3708C66.9309 40.3238 66.9776 40.2534 67.0242 40.1595C67.164 40.1595 67.2107 40.0303 67.164 39.772C67.1174 39.5842 67.1874 39.185 67.3738 38.5745C67.5836 37.9405 67.8633 37.3418 68.213 36.7782C68.3528 36.5434 68.5626 36.2382 68.8423 35.8625C69.122 35.4633 69.4251 35.0759 69.7514 34.7002C70.101 34.301 70.4157 33.984 70.6954 33.7492C71.2782 33.2561 71.8143 32.857 72.3038 32.5517C72.8166 32.2465 73.3294 32.0351 73.8422 31.9177C74.355 31.8003 74.8795 31.7416 75.4156 31.7416C75.9751 31.7416 76.4296 31.9295 76.7792 32.3052C77.3153 32.54 77.6883 32.857 77.8981 33.2561C78.1312 33.6553 78.2827 34.1719 78.3526 34.8059C78.4226 35.5103 78.3526 36.3791 78.1428 37.4122C77.9331 38.4219 77.362 39.5959 76.4296 40.9343C75.8468 41.7796 75.2758 42.4371 74.7163 42.9067C74.1569 43.3763 73.5392 43.8107 72.8632 44.2099C72.3737 44.5386 71.8493 44.7382 71.2898 44.8087C70.7304 44.8791 70.1826 44.9378 69.6465 44.9848ZM73.2129 40.6878C73.7257 40.2417 74.087 39.7486 74.2968 39.2085C74.5299 38.6684 74.7746 38.0345 75.031 37.3066C75.1243 37.1657 75.1825 36.9309 75.2058 36.6021C75.2525 36.2734 75.2641 35.9564 75.2408 35.6512C75.2175 35.3224 75.1359 35.1346 74.996 35.0876C74.7863 34.9233 74.5765 34.888 74.3667 34.982C74.1569 35.0524 73.8888 35.205 73.5625 35.4398C72.8632 36.0269 72.2106 36.7078 71.6045 37.4827C71.0218 38.234 70.6139 39.1615 70.3808 40.2651C70.3108 40.8521 70.3691 41.2983 70.5556 41.6035C70.7654 41.8853 71.0917 41.9675 71.5346 41.8501C72.0008 41.7092 72.5602 41.3218 73.2129 40.6878Z" fill="#C821D3"/>
<path d="M96.2301 44.386C96.0669 44.339 95.8105 44.1864 95.4608 43.9281C95.1112 43.6698 94.7965 43.2824 94.5168 42.7658C94.2604 42.2493 94.1438 41.5801 94.1672 40.7582C94.1905 40.0538 94.2371 39.5607 94.307 39.2789C94.4003 38.9737 94.3653 38.8093 94.2021 38.7858C94.0856 38.7624 93.8525 38.868 93.5028 39.1028C93.1532 39.3376 92.6986 39.7133 92.1392 40.2299C91.5798 40.7465 90.9038 41.4274 90.1113 42.2727C89.8316 42.5075 89.5169 42.801 89.1673 43.1533C88.8409 43.482 88.5029 43.7285 88.1533 43.8929C87.827 44.0573 87.5356 44.022 87.2792 43.7872L86.9295 43.4702C86.7664 43.3294 86.6265 43.1415 86.51 42.9067C86.3934 42.6719 86.3585 42.4723 86.4051 42.308L87.3841 39.5607C87.6638 38.9502 87.8503 38.5041 87.9435 38.2223C88.0601 37.9405 88.1067 37.7644 88.0834 37.694C88.0834 37.6235 88.0251 37.6001 87.9085 37.6235C87.7687 37.647 87.5706 37.7762 87.3141 38.011C87.0577 38.2223 86.8829 38.3984 86.7897 38.5393C86.6964 38.5393 86.5682 38.6332 86.4051 38.8211C86.2652 39.0089 86.1254 39.1733 85.9855 39.3142C85.8456 39.455 85.6009 39.7251 85.2513 40.1242C84.9016 40.4999 84.5287 40.8991 84.1324 41.3218C83.8294 41.6035 83.4797 41.9792 83.0835 42.4488C82.6872 42.9185 82.3376 43.3411 82.0345 43.7168C81.7315 44.0925 81.545 44.2803 81.4751 44.2803C81.0555 44.2569 80.6709 44.116 80.3213 43.8577C79.9949 43.5994 79.7735 43.2824 79.657 42.9067C79.5171 42.6484 79.5054 42.1788 79.622 41.4979C79.7385 40.7934 79.96 39.6781 80.2863 38.1519C80.3796 37.7997 80.4611 37.4944 80.5311 37.2361C80.6243 36.9778 80.7175 36.7195 80.8108 36.4613C80.904 36.203 81.0089 35.9095 81.1255 35.5807C81.2653 35.252 81.4401 34.8528 81.6499 34.3832C81.7665 34.0545 81.8131 33.7492 81.7898 33.4675C81.7665 33.1622 81.7432 32.9157 81.7199 32.7278C81.7199 32.3756 81.8247 32.0938 82.0345 31.8825C82.2676 31.6712 82.524 31.5303 82.8037 31.4599C83.0835 31.3659 83.3049 31.3425 83.4681 31.3894C84.1207 31.4599 84.5636 31.6947 84.7967 32.0938C85.0298 32.493 85.158 32.8804 85.1813 33.2561C85.2046 33.6083 85.158 33.9253 85.0415 34.2071C84.9249 34.4889 84.8317 34.7237 84.7617 34.9115L84.3771 35.8625C84.1441 36.4026 83.9692 36.8017 83.8527 37.06C83.7594 37.2948 83.7012 37.4592 83.6779 37.5531C83.6779 37.6235 83.6779 37.694 83.6779 37.7644C83.7012 37.8349 83.8061 37.7997 83.9925 37.6588C84.179 37.5179 84.4005 37.33 84.6569 37.0952C84.9366 36.8369 85.193 36.6139 85.4261 36.426C85.8456 36.0738 86.2885 35.7216 86.7547 35.3694C87.2442 34.9937 87.7221 34.665 88.1883 34.3832C88.6544 34.1014 89.0391 33.9136 89.3421 33.8197C89.7383 33.8901 90.0996 34.0897 90.426 34.4184C90.7756 34.7472 90.9971 35.0289 91.0903 35.2637C91.2068 35.6159 91.2185 35.9329 91.1253 36.2147C91.0553 36.4965 90.9971 36.7548 90.9504 36.9896C90.9271 37.0835 90.8805 37.2596 90.8106 37.5179C90.7406 37.7762 90.6707 38.0227 90.6008 38.2575C90.5309 38.4689 90.4959 38.5745 90.4959 38.5745C90.4959 38.5745 90.5658 38.5041 90.7057 38.3632C90.8455 38.2223 91.032 38.0579 91.2651 37.8701C91.4982 37.6588 91.7313 37.4709 91.9644 37.3066C93.1299 36.4143 94.0506 35.8508 94.7266 35.6159C95.4259 35.3577 96.0203 35.5572 96.5098 36.2147C96.7895 36.473 96.9643 36.8252 97.0342 37.2713C97.1275 37.7175 97.1741 38.3162 97.1741 39.0676C97.1974 39.3729 97.2207 39.7133 97.244 40.089C97.2906 40.4647 97.3372 40.7934 97.3839 41.0752C97.4538 41.357 97.5121 41.5331 97.5587 41.6035C97.6286 41.6975 97.7568 41.7914 97.9433 41.8853C98.1298 41.9557 98.3046 42.0144 98.4678 42.0614C98.7941 42.2258 98.9689 42.531 98.9922 42.9772C99.0388 43.3998 98.8757 43.7285 98.5027 43.9633C98.1531 44.1747 97.7801 44.3038 97.3839 44.3508C97.0109 44.3977 96.6263 44.4095 96.2301 44.386Z" fill="#C821D3"/>
</svg>
