<svg width="63" height="54" viewBox="0 0 63 54" fill="none" xmlns="http://www.w3.org/2000/svg">
<path d="M57.2885 33.8511C57.2705 33.9184 57.2522 33.9858 57.2336 34.0531C53.2681 48.4353 38.5829 56.9315 24.4335 53.0301C10.284 49.1287 2.02838 34.307 5.99395 19.9249C9.95951 5.54276 24.6446 -2.95353 38.7941 0.947877C38.8603 0.966148 38.9265 0.984658 38.9925 1.0034L34.2052 18.3657C34.1396 18.346 34.0736 18.3269 34.0072 18.3086C29.2907 17.0082 24.3957 19.8403 23.0738 24.6343C21.752 29.4283 24.5039 34.3689 29.2203 35.6694C33.9368 36.9699 38.8319 34.1378 40.1537 29.3437C40.1723 29.2762 40.1901 29.2087 40.2071 29.1412L57.2885 33.8511Z" fill="#C821D3"/>
<path d="M46.146 9.20724L54.1691 10.6617L47.2461 20.9161L42.5659 20.0677L46.146 9.20724Z" fill="#75BD33"/>
</svg>
