<svg width="73" height="66" viewBox="0 0 73 66" fill="none" xmlns="http://www.w3.org/2000/svg">
<path d="M48.5353 50.4123C48.4893 50.4536 48.4432 50.4947 48.3968 50.5357C38.497 59.289 23.4904 58.4893 14.8788 48.7497C6.26708 39.01 7.31133 24.0185 17.2112 15.2652C27.111 6.51193 42.1175 7.31155 50.7292 17.0512C50.7695 17.0968 50.8096 17.1426 50.8495 17.1884L38.8983 27.7555C38.8592 27.7091 38.8194 27.6631 38.779 27.6174C35.9085 24.3708 30.9063 24.1043 27.6064 27.022C24.3064 29.9398 23.9583 34.937 26.8289 38.1835C29.6995 41.4301 34.7016 41.6966 38.0016 38.7789C38.048 38.7378 38.0939 38.6963 38.1392 38.6544L48.5353 50.4123Z" fill="#C821D3"/>
<path d="M32.7587 36.7619C31.4937 36.7619 30.2397 36.4209 29.5137 35.9149L30.2287 34.3089C30.9107 34.7599 31.8787 35.0679 32.7697 35.0679C33.6717 35.0679 34.0237 34.8149 34.0237 34.4409C34.0237 33.2199 29.6457 34.1109 29.6457 31.2509C29.6457 29.8759 30.7677 28.7539 33.0557 28.7539C34.0567 28.7539 35.0907 28.9849 35.8497 29.4249L35.1787 31.0419C34.4417 30.6459 33.7157 30.4479 33.0447 30.4479C32.1317 30.4479 31.8017 30.7559 31.8017 31.1409C31.8017 32.3179 36.1687 31.4379 36.1687 34.2759C36.1687 35.6179 35.0467 36.7619 32.7587 36.7619ZM37.1748 36.6079V28.9079H39.3528V36.6079H37.1748ZM49.8563 36.6079H47.8543L47.8323 32.5269L45.8523 35.8489H44.8843L42.9153 32.6369V36.6079H40.9023V28.9079H42.6953L45.4013 33.3519L48.0413 28.9079H49.8343L49.8563 36.6079ZM54.9174 28.9079C57.0184 28.9079 58.3384 29.9969 58.3384 31.7569C58.3384 33.5059 57.0184 34.5949 54.9174 34.5949H53.5754V36.6079H51.3974V28.9079H54.9174ZM54.7854 32.8789C55.6874 32.8789 56.1384 32.4609 56.1384 31.7569C56.1384 31.0419 55.6874 30.6239 54.7854 30.6239H53.5754V32.8789H54.7854ZM59.4004 36.6079V28.9079H61.5784V34.8809H65.2524V36.6079H59.4004ZM68.2702 34.9249H72.2962V36.6079H66.1142V28.9079H72.1532V30.5909H68.2702V31.8889H71.6912V33.5169H68.2702V34.9249Z" fill="#75BD33"/>
</svg>
