<svg width="74" height="60" viewBox="0 0 74 60" fill="none" xmlns="http://www.w3.org/2000/svg">
<path d="M66.6667 53.3333H73.3333V60H0V53.3333H6.66667V3.33333C6.66667 2.44928 7.01786 1.60143 7.64298 0.976311C8.2681 0.351189 9.11595 0 10 0H43.3333C44.2174 0 45.0652 0.351189 45.6904 0.976311C46.3155 1.60143 46.6667 2.44928 46.6667 3.33333V53.3333H53.3333V20H63.3333C64.2174 20 65.0652 20.3512 65.6904 20.9763C66.3155 21.6014 66.6667 22.4493 66.6667 23.3333V53.3333ZM20 26.6667V33.3333H33.3333V26.6667H20ZM20 13.3333V20H33.3333V13.3333H20Z" fill="#C821D3"/>
</svg>
