<svg width="65" height="66" viewBox="0 0 65 66" fill="none" xmlns="http://www.w3.org/2000/svg">
<path d="M48.5343 50.4123C48.4883 50.4536 48.4422 50.4947 48.3958 50.5357C38.496 59.289 23.4895 58.4893 14.8778 48.7497C6.2661 39.01 7.31035 24.0185 17.2102 15.2652C27.11 6.51193 42.1165 7.31155 50.7282 17.0512C50.7685 17.0968 50.8087 17.1426 50.8486 17.1884L38.8974 27.7555C38.8582 27.7091 38.8185 27.6631 38.7781 27.6174C35.9075 24.3708 30.9053 24.1043 27.6054 27.022C24.3054 29.9398 23.9574 34.937 26.8279 38.1835C29.6985 41.4301 34.7007 41.6966 38.0006 38.7789C38.047 38.7378 38.0929 38.6963 38.1382 38.6544L48.5343 50.4123Z" fill="#C821D3"/>
<path d="M30.0459 37V29.3H33.5659C34.2699 29.3 34.8749 29.4137 35.3809 29.641C35.8942 29.8683 36.2902 30.1983 36.5689 30.631C36.8475 31.0563 36.9869 31.5623 36.9869 32.149C36.9869 32.7283 36.8475 33.2307 36.5689 33.656C36.2902 34.0813 35.8942 34.4113 35.3809 34.646C34.8749 34.8733 34.2699 34.987 33.5659 34.987H31.2559L32.2239 34.041V37H30.0459ZM32.2239 34.272L31.2559 33.271H33.4339C33.8885 33.271 34.2259 33.172 34.4459 32.974C34.6732 32.776 34.7869 32.501 34.7869 32.149C34.7869 31.7897 34.6732 31.511 34.4459 31.313C34.2259 31.115 33.8885 31.016 33.4339 31.016H31.2559L32.2239 30.015V34.272ZM38.0488 37V29.3H41.4918C42.6138 29.3 43.4755 29.5567 44.0768 30.07C44.6855 30.576 44.9898 31.269 44.9898 32.149C44.9898 32.7283 44.8505 33.2307 44.5718 33.656C44.2931 34.074 43.8971 34.3967 43.3838 34.624C42.8778 34.844 42.2728 34.954 41.5688 34.954H39.2588L40.2268 34.041V37H38.0488ZM42.8118 37L40.8978 34.195H43.2188L45.1438 37H42.8118ZM40.2268 34.272L39.2588 33.271H41.4368C41.8915 33.271 42.2288 33.172 42.4488 32.974C42.6761 32.776 42.7898 32.501 42.7898 32.149C42.7898 31.7897 42.6761 31.511 42.4488 31.313C42.2288 31.115 41.8915 31.016 41.4368 31.016H39.2588L40.2268 30.015V34.272ZM50.0744 37.154C49.4584 37.154 48.8901 37.055 48.3694 36.857C47.8487 36.659 47.3941 36.3803 47.0054 36.021C46.6241 35.6543 46.3271 35.229 46.1144 34.745C45.9017 34.261 45.7954 33.7293 45.7954 33.15C45.7954 32.5707 45.9017 32.039 46.1144 31.555C46.3271 31.071 46.6241 30.6493 47.0054 30.29C47.3941 29.9233 47.8487 29.641 48.3694 29.443C48.8901 29.245 49.4584 29.146 50.0744 29.146C50.6977 29.146 51.2661 29.245 51.7794 29.443C52.3001 29.641 52.7511 29.9233 53.1324 30.29C53.5137 30.6493 53.8107 31.071 54.0234 31.555C54.2434 32.039 54.3534 32.5707 54.3534 33.15C54.3534 33.7293 54.2434 34.2647 54.0234 34.756C53.8107 35.24 53.5137 35.6617 53.1324 36.021C52.7511 36.3803 52.3001 36.659 51.7794 36.857C51.2661 37.055 50.6977 37.154 50.0744 37.154ZM50.0744 35.35C50.3677 35.35 50.6391 35.2987 50.8884 35.196C51.1451 35.0933 51.3651 34.9467 51.5484 34.756C51.7391 34.558 51.8857 34.3233 51.9884 34.052C52.0984 33.7807 52.1534 33.48 52.1534 33.15C52.1534 32.8127 52.0984 32.512 51.9884 32.248C51.8857 31.9767 51.7391 31.7457 51.5484 31.555C51.3651 31.357 51.1451 31.2067 50.8884 31.104C50.6391 31.0013 50.3677 30.95 50.0744 30.95C49.7811 30.95 49.5061 31.0013 49.2494 31.104C49.0001 31.2067 48.7801 31.357 48.5894 31.555C48.4061 31.7457 48.2594 31.9767 48.1494 32.248C48.0467 32.512 47.9954 32.8127 47.9954 33.15C47.9954 33.48 48.0467 33.7807 48.1494 34.052C48.2594 34.3233 48.4061 34.558 48.5894 34.756C48.7801 34.9467 49.0001 35.0933 49.2494 35.196C49.5061 35.2987 49.7811 35.35 50.0744 35.35Z" fill="#75BD33"/>
</svg>
