<svg width="80" height="80" viewBox="0 0 80 80" fill="none" xmlns="http://www.w3.org/2000/svg">
<path fill-rule="evenodd" clip-rule="evenodd" d="M45.7143 17.1429C45.7143 21.6894 43.9082 26.0498 40.6933 29.2647C37.4784 32.4796 33.118 34.2857 28.5714 34.2857C24.0249 34.2857 19.6645 32.4796 16.4496 29.2647C13.2347 26.0498 11.4286 21.6894 11.4286 17.1429C11.4286 12.5963 13.2347 8.23594 16.4496 5.02103C19.6645 1.80612 24.0249 0 28.5714 0C33.118 0 37.4784 1.80612 40.6933 5.02103C43.9082 8.23594 45.7143 12.5963 45.7143 17.1429ZM34.5714 71.4286H2.85715C2.09939 71.4286 1.37267 71.1276 0.83685 70.5917C0.301032 70.0559 1.23917e-05 69.3292 1.23917e-05 68.5714C-0.00627922 61.813 2.38343 55.2711 6.74458 50.108C11.1057 44.945 17.1559 41.4951 23.8203 40.3712C30.4847 39.2473 37.3317 40.5223 43.1448 43.9696C48.958 47.4169 53.361 52.8133 55.5714 59.2L55.1371 59.8286L51.7029 57.52C49.6659 56.0501 47.2014 55.2922 44.6904 55.3636C42.1795 55.435 39.762 56.3317 37.8118 57.915C35.8617 59.4983 34.4875 61.68 33.9017 64.1227C33.316 66.5654 33.5514 69.1331 34.5714 71.4286ZM79.1429 52.5714C79.8249 51.6621 80.1177 50.5191 79.9569 49.3939C79.7962 48.2687 79.195 47.2534 78.2857 46.5714C77.3764 45.8894 76.2334 45.5966 75.1082 45.7574C73.983 45.9181 72.9677 46.5193 72.2857 47.4286L57.0286 69.7143L47.6 63.3714C47.1498 63.0337 46.6374 62.788 46.0922 62.6484C45.547 62.5087 44.9796 62.4778 44.4225 62.5574C43.8653 62.637 43.3293 62.8255 42.845 63.1123C42.3608 63.399 41.9377 63.7783 41.6 64.2286C41.2623 64.6788 41.0166 65.1912 40.877 65.7364C40.7373 66.2816 40.7063 66.8489 40.7859 67.4061C40.8655 67.9632 41.0541 68.4993 41.3408 68.9835C41.6276 69.4678 42.0069 69.8909 42.4572 70.2286L55.3143 79.1429C55.7645 79.4805 56.2769 79.7262 56.8221 79.8659C57.3673 80.0056 57.9347 80.0365 58.4918 79.9569C59.049 79.8773 59.585 79.6888 60.0693 79.402C60.5535 79.1153 60.9766 78.736 61.3143 78.2857L79.1429 52.5714Z" fill="#C821D3"/>
</svg>
