<svg width="80" height="80" viewBox="0 0 80 80" fill="none" xmlns="http://www.w3.org/2000/svg">
<path fill-rule="evenodd" clip-rule="evenodd" d="M61.1666 6.66675C63.7699 6.66675 66.3566 8.23342 67.2499 11.0167L67.5032 11.8367L67.7666 12.7701L68.0332 13.8234L68.2899 14.9767L68.5332 16.2301L68.6466 16.8901L68.8499 18.2801C69.6166 24.2467 69.3732 32.3801 65.1099 40.6301L64.5799 41.6201C60.1066 49.6701 60.4299 57.7734 61.4399 63.0367L61.6866 64.2001L61.8132 64.7401L62.0699 65.7401L62.3266 66.6134C63.2399 69.5801 61.2666 73.0201 57.9032 73.3134L57.4366 73.3334H18.8332C16.2332 73.3334 13.6432 71.7667 12.7499 68.9834L12.4999 68.1634L12.2332 67.2301L11.9666 66.1768L11.7099 65.0234L11.4666 63.7701C11.3866 63.3368 11.3132 62.889 11.2466 62.4268L11.0632 60.9934L10.9232 59.4801C10.4999 53.8001 11.1399 46.6301 14.8899 39.3701L15.4199 38.3801C19.8932 30.3334 19.5666 22.2267 18.5599 16.9667L18.3166 15.8034L18.1866 15.2634L17.9299 14.2634L17.6732 13.3901C16.7599 10.4234 18.7332 6.98341 22.0966 6.69008L22.5666 6.66675H61.1666ZM39.9999 40.0001H29.9999C29.1158 40.0001 28.268 40.3513 27.6429 40.9764C27.0178 41.6015 26.6666 42.4494 26.6666 43.3334C26.6666 44.2175 27.0178 45.0653 27.6429 45.6904C28.268 46.3156 29.1158 46.6667 29.9999 46.6667H39.9999C40.8839 46.6667 41.7318 46.3156 42.3569 45.6904C42.982 45.0653 43.3332 44.2175 43.3332 43.3334C43.3332 42.4494 42.982 41.6015 42.3569 40.9764C41.7318 40.3513 40.8839 40.0001 39.9999 40.0001ZM53.3332 26.6667H33.3332C32.4836 26.6677 31.6665 26.993 31.0487 27.5762C30.4309 28.1595 30.0591 28.9566 30.0093 29.8047C29.9595 30.6529 30.2355 31.488 30.7808 32.1395C31.3261 32.791 32.0996 33.2097 32.9432 33.3101L33.3332 33.3334H53.3332C54.1828 33.3325 55 33.0072 55.6178 32.4239C56.2356 31.8407 56.6073 31.0436 56.6571 30.1954C56.7069 29.3473 56.431 28.5121 55.8857 27.8606C55.3404 27.2091 54.5669 26.7904 53.7232 26.6901L53.3332 26.6667Z" fill="#C821D3"/>
</svg>
