<svg width="109" height="66" viewBox="0 0 109 66" fill="none" xmlns="http://www.w3.org/2000/svg">
<path d="M48.5363 50.4123C48.4903 50.4536 48.4441 50.4947 48.3978 50.5357C38.4979 59.289 23.4914 58.4893 14.8797 48.7497C6.26805 39.01 7.3123 24.0185 17.2121 15.2652C27.112 6.51193 42.1185 7.31155 50.7302 17.0512C50.7705 17.0968 50.8106 17.1426 50.8505 17.1884L38.8993 27.7555C38.8602 27.7091 38.8204 27.6631 38.78 27.6174C35.9095 24.3708 30.9073 24.1043 27.6073 27.022C24.3074 29.9398 23.9593 34.937 26.8299 38.1835C29.7004 41.4301 34.7026 41.6966 38.0026 38.7789C38.049 38.7378 38.0949 38.6963 38.1401 38.6544L48.5363 50.4123Z" fill="#C821D3"/>
<path d="M58.5326 41.336C57.2046 41.336 55.9726 41.128 54.8366 40.712C53.7166 40.28 52.7406 39.672 51.9086 38.888C51.0926 38.104 50.4526 37.184 49.9886 36.128C49.5246 35.056 49.2926 33.88 49.2926 32.6C49.2926 31.32 49.5246 30.152 49.9886 29.096C50.4526 28.024 51.0926 27.096 51.9086 26.312C52.7406 25.528 53.7166 24.928 54.8366 24.512C55.9726 24.08 57.2046 23.864 58.5326 23.864C60.0846 23.864 61.4686 24.136 62.6846 24.68C63.9166 25.224 64.9406 26.008 65.7566 27.032L62.7326 29.768C62.1886 29.128 61.5886 28.64 60.9326 28.304C60.2926 27.968 59.5726 27.8 58.7726 27.8C58.0846 27.8 57.4526 27.912 56.8766 28.136C56.3006 28.36 55.8046 28.688 55.3886 29.12C54.9886 29.536 54.6686 30.04 54.4286 30.632C54.2046 31.224 54.0926 31.88 54.0926 32.6C54.0926 33.32 54.2046 33.976 54.4286 34.568C54.6686 35.16 54.9886 35.672 55.3886 36.104C55.8046 36.52 56.3006 36.84 56.8766 37.064C57.4526 37.288 58.0846 37.4 58.7726 37.4C59.5726 37.4 60.2926 37.232 60.9326 36.896C61.5886 36.56 62.1886 36.072 62.7326 35.432L65.7566 38.168C64.9406 39.176 63.9166 39.96 62.6846 40.52C61.4686 41.064 60.0846 41.336 58.5326 41.336ZM75.4801 41.336C74.1361 41.336 72.8961 41.12 71.7601 40.688C70.6241 40.256 69.6321 39.648 68.7841 38.864C67.9521 38.064 67.3041 37.136 66.8401 36.08C66.3761 35.024 66.1441 33.864 66.1441 32.6C66.1441 31.336 66.3761 30.176 66.8401 29.12C67.3041 28.064 67.9521 27.144 68.7841 26.36C69.6321 25.56 70.6241 24.944 71.7601 24.512C72.8961 24.08 74.1361 23.864 75.4801 23.864C76.8401 23.864 78.0801 24.08 79.2001 24.512C80.3361 24.944 81.3201 25.56 82.1521 26.36C82.9841 27.144 83.6321 28.064 84.0961 29.12C84.5761 30.176 84.8161 31.336 84.8161 32.6C84.8161 33.864 84.5761 35.032 84.0961 36.104C83.6321 37.16 82.9841 38.08 82.1521 38.864C81.3201 39.648 80.3361 40.256 79.2001 40.688C78.0801 41.12 76.8401 41.336 75.4801 41.336ZM75.4801 37.4C76.1201 37.4 76.7121 37.288 77.2561 37.064C77.8161 36.84 78.2961 36.52 78.6961 36.104C79.1121 35.672 79.4321 35.16 79.6561 34.568C79.8961 33.976 80.0161 33.32 80.0161 32.6C80.0161 31.864 79.8961 31.208 79.6561 30.632C79.4321 30.04 79.1121 29.536 78.6961 29.12C78.2961 28.688 77.8161 28.36 77.2561 28.136C76.7121 27.912 76.1201 27.8 75.4801 27.8C74.8401 27.8 74.2401 27.912 73.6801 28.136C73.1361 28.36 72.6561 28.688 72.2401 29.12C71.8401 29.536 71.5201 30.04 71.2801 30.632C71.0561 31.208 70.9441 31.864 70.9441 32.6C70.9441 33.32 71.0561 33.976 71.2801 34.568C71.5201 35.16 71.8401 35.672 72.2401 36.104C72.6561 36.52 73.1361 36.84 73.6801 37.064C74.2401 37.288 74.8401 37.4 75.4801 37.4ZM87.305 41V24.2H91.217L98.177 35.624H96.113L102.881 24.2H106.793L106.841 41H102.473L102.425 30.848H103.169L98.105 39.344H95.993L90.785 30.848H91.697V41H87.305Z" fill="#75BD33"/>
</svg>
