<svg width="80" height="80" viewBox="0 0 80 80" fill="none" xmlns="http://www.w3.org/2000/svg">
<path d="M21.812 16.6679C21.545 16.3955 21.2269 16.1783 20.8758 16.0288C20.5248 15.8793 20.1478 15.8005 19.7663 15.7968C19.3848 15.7931 19.0063 15.8645 18.6525 16.0072C18.2986 16.1498 17.9763 16.3607 17.704 16.628C14.6247 19.6909 12.1819 23.333 10.5165 27.3442C8.85101 31.3555 7.99576 35.6567 8.00002 40C7.9955 44.51 8.91772 48.9728 10.7095 53.1116C12.5013 57.2504 15.1243 60.9769 18.416 64.0599C18.9701 64.5721 19.702 64.8482 20.4563 64.8295C21.2106 64.8109 21.928 64.4989 22.456 63.9599C23.72 62.6959 23.564 60.684 22.348 59.52C19.706 57.0021 17.6036 53.9733 16.1685 50.6176C14.7334 47.262 13.9956 43.6496 14 40C14 32.616 16.964 25.92 21.772 21.048C22.932 19.868 23.052 17.9079 21.812 16.6679ZM28.856 23.7199C28.3292 23.1779 27.609 22.8668 26.8532 22.8548C26.0975 22.8428 25.3678 23.1309 24.824 23.656C22.6593 25.7914 20.9411 28.3362 19.7695 31.1422C18.598 33.9482 17.9964 36.9592 18 40C18 46.768 20.92 52.852 25.572 57.06C26.1215 57.5445 26.8364 57.799 27.5684 57.7707C28.3005 57.7424 28.9936 57.4334 29.504 56.908C30.816 55.596 30.572 53.532 29.34 52.372C27.6518 50.784 26.307 48.867 25.3885 46.7391C24.4701 44.6112 23.9975 42.3176 24 40C24 35.4 25.828 31.2239 28.8 28.1599C29.944 26.9839 30.132 24.9919 28.856 23.7199ZM51.144 23.7159C51.6708 23.1739 52.391 22.8628 53.1468 22.8508C53.9026 22.8388 54.6323 23.1269 55.176 23.652C57.3412 25.7878 59.0597 28.3333 60.2313 31.14C61.4029 33.9467 62.0041 36.9585 62 40C62 46.768 59.08 52.852 54.428 57.06C53.8785 57.5445 53.1637 57.799 52.4316 57.7707C51.6996 57.7424 51.0065 57.4334 50.496 56.908C49.184 55.596 49.428 53.532 50.66 52.372C52.3482 50.784 53.693 48.867 54.6115 46.7391C55.5299 44.6112 56.0025 42.3176 56 40C56 35.4 54.172 31.2239 51.2 28.1599C50.056 26.9839 49.868 24.9879 51.144 23.7159ZM58.188 16.6679C58.4551 16.3955 58.7732 16.1783 59.1242 16.0288C59.4752 15.8793 59.8522 15.8005 60.2337 15.7968C60.6152 15.7931 60.9937 15.8645 61.3476 16.0072C61.7014 16.1498 62.0237 16.3607 62.296 16.628C65.3753 19.6909 67.8181 23.333 69.4836 27.3442C71.149 31.3555 72.0043 35.6567 72 40C72.0045 44.51 71.0823 48.9728 69.2905 53.1116C67.4988 57.2504 64.8757 60.9769 61.584 64.0599C61.0299 64.5721 60.298 64.8482 59.5437 64.8295C58.7894 64.8109 58.0721 64.4989 57.544 63.9599C56.28 62.6959 56.436 60.684 57.656 59.52C60.2973 57.0017 62.399 53.9728 63.8334 50.6172C65.2678 47.2615 66.0049 43.6493 66 40C66 32.616 63.036 25.92 58.228 21.048C57.068 19.868 56.948 17.9079 58.188 16.6679ZM40 34C38.4087 34 36.8826 34.6321 35.7574 35.7573C34.6322 36.8825 34 38.4087 34 40C34 41.5912 34.6322 43.1174 35.7574 44.2426C36.8826 45.3678 38.4087 46 40 46C41.5913 46 43.1174 45.3678 44.2427 44.2426C45.3679 43.1174 46 41.5912 46 40C46 38.4087 45.3679 36.8825 44.2427 35.7573C43.1174 34.6321 41.5913 34 40 34Z" fill="#C821D3"/>
</svg>
