<svg width="80" height="80" viewBox="0 0 80 80" fill="none" xmlns="http://www.w3.org/2000/svg">
<path d="M3.33301 63.3333V13.3333H9.99967V46.6666H36.6663V19.9999H63.333C66.9997 19.9999 70.1386 21.3055 72.7497 23.9166C75.3608 26.5277 76.6663 29.6666 76.6663 33.3333V63.3333H69.9997V53.3333H9.99967V63.3333H3.33301ZM23.333 43.3333C20.5552 43.3333 18.1941 42.361 16.2497 40.4166C14.3052 38.4721 13.333 36.111 13.333 33.3333C13.333 30.5555 14.3052 28.1944 16.2497 26.2499C18.1941 24.3055 20.5552 23.3333 23.333 23.3333C26.1108 23.3333 28.4719 24.3055 30.4163 26.2499C32.3608 28.1944 33.333 30.5555 33.333 33.3333C33.333 36.111 32.3608 38.4721 30.4163 40.4166C28.4719 42.361 26.1108 43.3333 23.333 43.3333Z" fill="#C821D3"/>
</svg>
