<svg width="142" height="66" viewBox="0 0 142 66" fill="none" xmlns="http://www.w3.org/2000/svg">
<path d="M48.5333 50.4123C48.4874 50.4536 48.4412 50.4947 48.3948 50.5357C38.495 59.289 23.4885 58.4893 14.8768 48.7497C6.26512 39.01 7.30937 24.0185 17.2092 15.2652C27.109 6.51193 42.1156 7.31155 50.7272 17.0512C50.7676 17.0968 50.8077 17.1426 50.8476 17.1884L38.8964 27.7555C38.8573 27.7091 38.8175 27.6631 38.7771 27.6174C35.9065 24.3708 30.9044 24.1043 27.6044 27.022C24.3045 29.9398 23.9564 34.937 26.8269 38.1835C29.6975 41.4301 34.6997 41.6966 37.9996 38.7789C38.0461 38.7378 38.0919 38.6963 38.1372 38.6544L48.5333 50.4123Z" fill="#C821D3"/>
<path d="M54.6797 41.336C53.3037 41.336 51.9757 41.168 50.6957 40.832C49.4317 40.48 48.3997 40.032 47.5997 39.488L49.1597 35.984C49.9117 36.464 50.7757 36.864 51.7517 37.184C52.7437 37.488 53.7277 37.64 54.7037 37.64C55.3597 37.64 55.8877 37.584 56.2877 37.472C56.6877 37.344 56.9757 37.184 57.1517 36.992C57.3437 36.784 57.4397 36.544 57.4397 36.272C57.4397 35.888 57.2637 35.584 56.9117 35.36C56.5597 35.136 56.1037 34.952 55.5437 34.808C54.9837 34.664 54.3597 34.52 53.6717 34.376C52.9997 34.232 52.3197 34.048 51.6317 33.824C50.9597 33.6 50.3437 33.312 49.7837 32.96C49.2237 32.592 48.7677 32.12 48.4157 31.544C48.0637 30.952 47.8877 30.208 47.8877 29.312C47.8877 28.304 48.1597 27.392 48.7037 26.576C49.2637 25.76 50.0957 25.104 51.1997 24.608C52.3037 24.112 53.6797 23.864 55.3277 23.864C56.4317 23.864 57.5117 23.992 58.5677 24.248C59.6397 24.488 60.5917 24.848 61.4237 25.328L59.9597 28.856C59.1597 28.424 58.3677 28.104 57.5837 27.896C56.7997 27.672 56.0397 27.56 55.3037 27.56C54.6477 27.56 54.1197 27.632 53.7197 27.776C53.3197 27.904 53.0317 28.08 52.8557 28.304C52.6797 28.528 52.5917 28.784 52.5917 29.072C52.5917 29.44 52.7597 29.736 53.0957 29.96C53.4477 30.168 53.9037 30.344 54.4637 30.488C55.0397 30.616 55.6637 30.752 56.3357 30.896C57.0237 31.04 57.7037 31.224 58.3757 31.448C59.0637 31.656 59.6877 31.944 60.2477 32.312C60.8077 32.664 61.2557 33.136 61.5917 33.728C61.9437 34.304 62.1197 35.032 62.1197 35.912C62.1197 36.888 61.8397 37.792 61.2797 38.624C60.7357 39.44 59.9117 40.096 58.8077 40.592C57.7197 41.088 56.3437 41.336 54.6797 41.336ZM64.3148 41V24.2H69.0668V41H64.3148ZM72.4476 41V24.2H76.3596L83.3196 35.624H81.2556L88.0236 24.2H91.9356L91.9836 41H87.6156L87.5676 30.848H88.3116L83.2476 39.344H81.1356L75.9276 30.848H76.8396V41H72.4476ZM95.346 41V24.2H103.026C104.562 24.2 105.882 24.448 106.986 24.944C108.106 25.44 108.97 26.16 109.578 27.104C110.186 28.032 110.49 29.136 110.49 30.416C110.49 31.68 110.186 32.776 109.578 33.704C108.97 34.632 108.106 35.352 106.986 35.864C105.882 36.36 104.562 36.608 103.026 36.608H97.986L100.098 34.544V41H95.346ZM100.098 35.048L97.986 32.864H102.738C103.73 32.864 104.466 32.648 104.946 32.216C105.442 31.784 105.69 31.184 105.69 30.416C105.69 29.632 105.442 29.024 104.946 28.592C104.466 28.16 103.73 27.944 102.738 27.944H97.986L100.098 25.76V35.048ZM112.807 41V24.2H117.559V37.232H125.575V41H112.807ZM127.455 41V24.2H140.631V27.872H132.159V37.328H140.943V41H127.455ZM131.823 34.256V30.704H139.623V34.256H131.823Z" fill="#75BD33"/>
</svg>
