<svg width="80" height="80" viewBox="0 0 80 80" fill="none" xmlns="http://www.w3.org/2000/svg">
<path fill-rule="evenodd" clip-rule="evenodd" d="M31.8433 1.745e-07C23.398 1.745e-07 15.2985 3.35491 9.3267 9.3267C3.35491 15.2985 0 23.398 0 31.8433C0.00194631 38.031 1.8053 44.0843 5.18992 49.2642C8.57454 54.4441 13.394 58.5266 19.06 61.0133V51.5767C16.3611 49.8276 14.0494 47.5438 12.2675 44.8665C10.4857 42.1891 9.27152 39.1749 8.7 36.01H16.05L19.1 44.3933L26.8367 41.2833L24.92 36.01H39.9633L52.8633 30.8233L63.52 35.1067C63.6289 34.0333 63.6844 32.9444 63.6867 31.84C63.6862 27.6583 62.8621 23.5176 61.2615 19.6543C59.6608 15.7911 57.3148 12.281 54.3576 9.32434C51.4004 6.36772 47.8897 4.02253 44.0262 2.42265C40.1626 0.822781 36.0217 -0.000437588 31.84 1.745e-07M22.36 10.3233C18.8372 11.8776 15.7496 14.2726 13.368 17.2981C10.9864 20.3237 9.3835 23.8874 8.7 27.6767H16.05L22.36 10.3233ZM54.9833 27.6767C54.2998 23.8874 52.697 20.3237 50.3154 17.2981C47.9338 14.2726 44.8461 11.8776 41.3233 10.3233L47.6333 27.6767H54.9833ZM24.9167 27.6767L31.8467 8.63333L38.77 27.6733L24.9167 27.6767ZM52.8633 38.01L54.4167 38.6333L77.3867 47.8633L80 48.9133V55.1833L77.3867 56.2333L69.5867 59.3667V69.52L69.59 72.17L67.19 73.2933L54.6267 79.1733L52.86 80L51.0933 79.1733L38.55 73.2933L36.1567 72.17L36.1533 69.5267L36.1333 59.3667L34.06 58.5333V66.7333H25.7267V48.9133L28.34 47.8633L51.31 38.63L52.8633 38.01ZM44.4733 62.7167L44.48 66.87L52.8633 70.7967L61.2567 66.87V62.7167L54.4167 65.4633L52.8633 66.0867L51.31 65.4633L44.4733 62.7167Z" fill="#C821D3"/>
</svg>
