<svg width="65" height="66" viewBox="0 0 65 66" fill="none" xmlns="http://www.w3.org/2000/svg">
<path d="M48.5343 50.4123C48.4883 50.4536 48.4422 50.4947 48.3958 50.5357C38.496 59.289 23.4895 58.4893 14.8778 48.7497C6.2661 39.01 7.31035 24.0185 17.2102 15.2652C27.11 6.51193 42.1165 7.31155 50.7282 17.0512C50.7685 17.0968 50.8087 17.1426 50.8486 17.1884L38.8974 27.7555C38.8582 27.7091 38.8185 27.6631 38.7781 27.6174C35.9075 24.3708 30.9053 24.1043 27.6054 27.022C24.3054 29.9398 23.9574 34.937 26.8279 38.1835C29.6985 41.4301 34.7007 41.6966 38.0006 38.7789C38.047 38.7378 38.0929 38.6963 38.1382 38.6544L48.5343 50.4123Z" fill="#C821D3"/>
<path d="M32.8483 37.154C32.2396 37.154 31.6749 37.0587 31.1543 36.868C30.6409 36.67 30.1936 36.3913 29.8123 36.032C29.4383 35.6727 29.1449 35.251 28.9323 34.767C28.7196 34.2757 28.6133 33.7367 28.6133 33.15C28.6133 32.5633 28.7196 32.028 28.9323 31.544C29.1449 31.0527 29.4383 30.6273 29.8123 30.268C30.1936 29.9087 30.6409 29.6337 31.1543 29.443C31.6749 29.245 32.2396 29.146 32.8483 29.146C33.5596 29.146 34.1939 29.2707 34.7513 29.52C35.3159 29.7693 35.7853 30.1287 36.1593 30.598L34.7733 31.852C34.5239 31.5587 34.2489 31.335 33.9483 31.181C33.6549 31.027 33.3249 30.95 32.9583 30.95C32.6429 30.95 32.3533 31.0013 32.0893 31.104C31.8253 31.2067 31.5979 31.357 31.4073 31.555C31.2239 31.7457 31.0773 31.9767 30.9673 32.248C30.8646 32.5193 30.8133 32.82 30.8133 33.15C30.8133 33.48 30.8646 33.7807 30.9673 34.052C31.0773 34.3233 31.2239 34.558 31.4073 34.756C31.5979 34.9467 31.8253 35.0933 32.0893 35.196C32.3533 35.2987 32.6429 35.35 32.9583 35.35C33.3249 35.35 33.6549 35.273 33.9483 35.119C34.2489 34.965 34.5239 34.7413 34.7733 34.448L36.1593 35.702C35.7853 36.164 35.3159 36.5233 34.7513 36.78C34.1939 37.0293 33.5596 37.154 32.8483 37.154ZM40.6159 37.154C39.9999 37.154 39.4316 37.055 38.9109 36.857C38.3902 36.659 37.9356 36.3803 37.5469 36.021C37.1656 35.6543 36.8686 35.229 36.6559 34.745C36.4432 34.261 36.3369 33.7293 36.3369 33.15C36.3369 32.5707 36.4432 32.039 36.6559 31.555C36.8686 31.071 37.1656 30.6493 37.5469 30.29C37.9356 29.9233 38.3902 29.641 38.9109 29.443C39.4316 29.245 39.9999 29.146 40.6159 29.146C41.2392 29.146 41.8076 29.245 42.3209 29.443C42.8416 29.641 43.2926 29.9233 43.6739 30.29C44.0552 30.6493 44.3522 31.071 44.5649 31.555C44.7849 32.039 44.8949 32.5707 44.8949 33.15C44.8949 33.7293 44.7849 34.2647 44.5649 34.756C44.3522 35.24 44.0552 35.6617 43.6739 36.021C43.2926 36.3803 42.8416 36.659 42.3209 36.857C41.8076 37.055 41.2392 37.154 40.6159 37.154ZM40.6159 35.35C40.9092 35.35 41.1806 35.2987 41.4299 35.196C41.6866 35.0933 41.9066 34.9467 42.0899 34.756C42.2806 34.558 42.4272 34.3233 42.5299 34.052C42.6399 33.7807 42.6949 33.48 42.6949 33.15C42.6949 32.8127 42.6399 32.512 42.5299 32.248C42.4272 31.9767 42.2806 31.7457 42.0899 31.555C41.9066 31.357 41.6866 31.2067 41.4299 31.104C41.1806 31.0013 40.9092 30.95 40.6159 30.95C40.3226 30.95 40.0476 31.0013 39.7909 31.104C39.5416 31.2067 39.3216 31.357 39.1309 31.555C38.9476 31.7457 38.8009 31.9767 38.6909 32.248C38.5882 32.512 38.5369 32.8127 38.5369 33.15C38.5369 33.48 38.5882 33.7807 38.6909 34.052C38.8009 34.3233 38.9476 34.558 39.1309 34.756C39.3216 34.9467 39.5416 35.0933 39.7909 35.196C40.0476 35.2987 40.3226 35.35 40.6159 35.35ZM46.0356 37V29.3H47.8286L51.0186 34.536H50.0726L53.1746 29.3H54.9676L54.9896 37H52.9876L52.9656 32.347H53.3066L50.9856 36.241H50.0176L47.6306 32.347H48.0486V37H46.0356Z" fill="#75BD33"/>
</svg>
