<svg width="106" height="66" viewBox="0 0 106 66" fill="none" xmlns="http://www.w3.org/2000/svg">
<path d="M48.5343 50.4123C48.4883 50.4536 48.4422 50.4947 48.3958 50.5357C38.496 59.289 23.4895 58.4893 14.8778 48.7497C6.2661 39.01 7.31035 24.0185 17.2102 15.2652C27.11 6.51193 42.1165 7.31155 50.7282 17.0512C50.7685 17.0968 50.8087 17.1426 50.8486 17.1884L38.8974 27.7555C38.8582 27.7091 38.8185 27.6631 38.7781 27.6174C35.9075 24.3708 30.9053 24.1043 27.6054 27.022C24.3054 29.9398 23.9574 34.937 26.8279 38.1835C29.6985 41.4301 34.7007 41.6966 38.0006 38.7789C38.047 38.7378 38.0929 38.6963 38.1382 38.6544L48.5343 50.4123Z" fill="#C821D3"/>
<path d="M51.9163 41V24.2H59.5963C61.1323 24.2 62.4523 24.448 63.5563 24.944C64.6763 25.44 65.5403 26.16 66.1483 27.104C66.7563 28.032 67.0603 29.136 67.0603 30.416C67.0603 31.68 66.7563 32.776 66.1483 33.704C65.5403 34.632 64.6763 35.352 63.5563 35.864C62.4523 36.36 61.1323 36.608 59.5963 36.608H54.5563L56.6683 34.544V41H51.9163ZM56.6683 35.048L54.5563 32.864H59.3083C60.3003 32.864 61.0363 32.648 61.5163 32.216C62.0123 31.784 62.2603 31.184 62.2603 30.416C62.2603 29.632 62.0123 29.024 61.5163 28.592C61.0363 28.16 60.3003 27.944 59.3083 27.944H54.5563L56.6683 25.76V35.048ZM69.3773 41V24.2H76.8893C79.3373 24.2 81.2173 24.76 82.5293 25.88C83.8573 26.984 84.5213 28.496 84.5213 30.416C84.5213 31.68 84.2173 32.776 83.6093 33.704C83.0013 34.616 82.1373 35.32 81.0173 35.816C79.9133 36.296 78.5933 36.536 77.0573 36.536H72.0173L74.1293 34.544V41H69.3773ZM79.7693 41L75.5933 34.88H80.6573L84.8573 41H79.7693ZM74.1293 35.048L72.0173 32.864H76.7693C77.7613 32.864 78.4973 32.648 78.9773 32.216C79.4733 31.784 79.7213 31.184 79.7213 30.416C79.7213 29.632 79.4733 29.024 78.9773 28.592C78.4973 28.16 77.7613 27.944 76.7693 27.944H72.0173L74.1293 25.76V35.048ZM95.6149 41.336C94.2709 41.336 93.0309 41.12 91.8949 40.688C90.7589 40.256 89.7669 39.648 88.9189 38.864C88.0869 38.064 87.4389 37.136 86.9749 36.08C86.5109 35.024 86.2789 33.864 86.2789 32.6C86.2789 31.336 86.5109 30.176 86.9749 29.12C87.4389 28.064 88.0869 27.144 88.9189 26.36C89.7669 25.56 90.7589 24.944 91.8949 24.512C93.0309 24.08 94.2709 23.864 95.6149 23.864C96.9749 23.864 98.2149 24.08 99.3349 24.512C100.471 24.944 101.455 25.56 102.287 26.36C103.119 27.144 103.767 28.064 104.231 29.12C104.711 30.176 104.951 31.336 104.951 32.6C104.951 33.864 104.711 35.032 104.231 36.104C103.767 37.16 103.119 38.08 102.287 38.864C101.455 39.648 100.471 40.256 99.3349 40.688C98.2149 41.12 96.9749 41.336 95.6149 41.336ZM95.6149 37.4C96.2549 37.4 96.8469 37.288 97.3909 37.064C97.9509 36.84 98.4309 36.52 98.8309 36.104C99.2469 35.672 99.5669 35.16 99.7909 34.568C100.031 33.976 100.151 33.32 100.151 32.6C100.151 31.864 100.031 31.208 99.7909 30.632C99.5669 30.04 99.2469 29.536 98.8309 29.12C98.4309 28.688 97.9509 28.36 97.3909 28.136C96.8469 27.912 96.2549 27.8 95.6149 27.8C94.9749 27.8 94.3749 27.912 93.8149 28.136C93.2709 28.36 92.7909 28.688 92.3749 29.12C91.9749 29.536 91.6549 30.04 91.4149 30.632C91.1909 31.208 91.0789 31.864 91.0789 32.6C91.0789 33.32 91.1909 33.976 91.4149 34.568C91.6549 35.16 91.9749 35.672 92.3749 36.104C92.7909 36.52 93.2709 36.84 93.8149 37.064C94.3749 37.288 94.9749 37.4 95.6149 37.4Z" fill="#75BD33"/>
</svg>
