<svg width="80" height="80" viewBox="0 0 80 80" fill="none" xmlns="http://www.w3.org/2000/svg">
<path d="M12.477 9.38675C12.5389 8.6345 12.8883 7.93506 13.4527 7.43388C14.0171 6.9327 14.7529 6.66837 15.5072 6.69584C16.2615 6.72332 16.9762 7.04049 17.5026 7.5814C18.029 8.12231 18.3267 8.84533 18.3337 9.60008V24.5801C18.3337 25.1326 18.5532 25.6625 18.9439 26.0532C19.3346 26.4439 19.8645 26.6634 20.417 26.6634C20.9695 26.6634 21.4994 26.4439 21.8901 26.0532C22.2808 25.6625 22.5003 25.1326 22.5003 24.5801V9.16675C22.5003 8.50371 22.7637 7.86782 23.2326 7.39898C23.7014 6.93014 24.3373 6.66675 25.0003 6.66675C25.6634 6.66675 26.2992 6.93014 26.7681 7.39898C27.2369 7.86782 27.5003 8.50371 27.5003 9.16675V24.5801C27.5003 25.1326 27.7198 25.6625 28.1105 26.0532C28.5012 26.4439 29.0311 26.6634 29.5837 26.6634C30.1362 26.6634 30.6661 26.4439 31.0568 26.0532C31.4475 25.6625 31.667 25.1326 31.667 24.5801V9.60008C31.674 8.84533 31.9716 8.12231 32.498 7.5814C33.0245 7.04049 33.7391 6.72332 34.4934 6.69584C35.2477 6.66837 35.9836 6.9327 36.5479 7.43388C37.1123 7.93506 37.4618 8.6345 37.5237 9.38675C37.667 11.4267 38.3337 21.2334 38.3337 26.6667C38.3337 31.1667 36.1003 35.1467 32.6937 37.5567C31.9737 38.0667 31.8003 38.6067 31.817 38.8801C32.227 45.1401 33.3337 62.2734 33.3337 64.9901C33.3337 67.2002 32.4557 69.3198 30.8929 70.8826C29.3301 72.4454 27.2105 73.3234 25.0003 73.3234C22.7902 73.3234 20.6706 72.4454 19.1078 70.8826C17.545 69.3198 16.667 67.2002 16.667 64.9901C16.667 62.2701 17.7737 45.1401 18.1837 38.8801C18.2003 38.6067 18.027 38.0667 17.307 37.5567C15.564 36.3254 14.1421 34.6937 13.1606 32.7987C12.1792 30.9037 11.667 28.8008 11.667 26.6667C11.667 21.2334 12.3337 11.4267 12.477 9.38675ZM43.3337 25.8334C43.3337 20.7501 45.353 15.875 48.9474 12.2805C52.5419 8.68609 57.417 6.66675 62.5003 6.66675C63.1634 6.66675 63.7993 6.93014 64.2681 7.39898C64.7369 7.86782 65.0003 8.50371 65.0003 9.16675V37.5001C65.0003 38.5601 65.3537 43.8167 65.7503 49.6401L65.767 49.9167C66.2003 56.2767 66.667 63.1934 66.667 64.9901C66.667 67.2002 65.789 69.3198 64.2262 70.8826C62.6634 72.4454 60.5438 73.3234 58.3337 73.3234C56.1235 73.3234 54.0039 72.4454 52.4411 70.8826C50.8783 69.3198 50.0003 67.2002 50.0003 64.9901C50.0003 63.2767 50.427 56.2867 50.8403 49.8767C51.047 46.6401 51.257 43.5034 51.4137 41.1767L51.4903 40.0001H49.167C48.4009 40.0001 47.6424 39.8492 46.9347 39.556C46.2269 39.2629 45.5839 38.8332 45.0422 38.2915C44.5005 37.7499 44.0708 37.1068 43.7777 36.3991C43.4845 35.6913 43.3337 34.9328 43.3337 34.1667V25.8334Z" fill="#C821D3"/>
</svg>
