<svg width="80" height="80" viewBox="0 0 80 80" fill="none" xmlns="http://www.w3.org/2000/svg">
<path d="M73.334 54.1667C74.7145 54.1669 75.834 55.2861 75.834 56.6667C75.834 58.0474 74.7145 59.1666 73.334 59.1667H6.66699C5.28628 59.1667 4.16699 58.0475 4.16699 56.6667C4.16699 55.286 5.28628 54.1667 6.66699 54.1667H73.334Z" fill="#C821D3"/>
<path d="M33.6867 6.20647C34.8614 5.48105 36.4016 5.8453 37.1271 7.01995L72.1271 63.686C72.8527 64.8607 72.4884 66.4018 71.3136 67.1274C70.139 67.8527 68.5987 67.4884 67.8732 66.3139L32.8732 9.6469C32.1478 8.47221 32.512 6.93199 33.6867 6.20647Z" fill="#C821D3"/>
<path d="M42.8733 7.01995C43.5988 5.8453 45.139 5.48105 46.3137 6.20647C47.4884 6.93199 47.8526 8.47221 47.1272 9.6469L12.1272 66.3139C11.4017 67.4884 9.86141 67.8527 8.68677 67.1274C7.51206 66.4018 7.14774 64.8607 7.87329 63.686L42.8733 7.01995Z" fill="#C821D3"/>
</svg>
