<svg width="24" height="24" viewBox="0 0 24 24" fill="none" xmlns="http://www.w3.org/2000/svg">
<path d="M20 3H4C3.4 3 3 3.4 3 4V20C3 20.6 3.4 21 4 21H20C20.6 21 21 20.6 21 20V4C21 3.4 20.6 3 20 3ZM8.3 18H5.7V10H8.3V18ZM7 8.8C6.1 8.8 5.4 8.1 5.4 7.2C5.4 6.3 6.1 5.6 7 5.6C7.9 5.6 8.6 6.3 8.6 7.2C8.6 8.1 7.9 8.8 7 8.8ZM18.3 18H15.7V14.2C15.7 13.2 15.7 11.9 14.3 11.9C12.9 11.9 12.7 13 12.7 14.1V18H10.1V10H12.6V11.2H12.6C13 10.5 13.8 9.9 14.9 9.9C17.2 9.9 18.3 11.4 18.3 13.7V18Z" fill="#A5909D"/>
</svg>
