<svg width="22" height="22" viewBox="0 0 22 22" fill="none" xmlns="http://www.w3.org/2000/svg">
<path d="M18.78 15.7117L15.0538 12.3237C14.8777 12.1634 14.6462 12.0779 14.4082 12.0852C14.1703 12.0926 13.9445 12.1923 13.7787 12.3631L11.5851 14.6191C11.0571 14.5182 9.99559 14.1873 8.90293 13.0974C7.81026 12.0038 7.47934 10.9396 7.38126 10.4152L9.63534 8.22072C9.80622 8.05492 9.90588 7.82914 9.91324 7.59116C9.9206 7.35318 9.83507 7.12168 9.67476 6.94564L6.28768 3.22031C6.1273 3.04372 5.9044 2.9366 5.66632 2.92171C5.42823 2.90682 5.19372 2.98533 5.01259 3.14056L3.02343 4.84647C2.86494 5.00553 2.77035 5.21722 2.75759 5.44139C2.74384 5.67056 2.48168 11.0991 6.69101 15.3102C10.3632 18.9815 14.963 19.2501 16.2298 19.2501C16.415 19.2501 16.5287 19.2446 16.5589 19.2427C16.7829 19.2295 16.9942 19.1346 17.1529 18.976L18.8579 16.9859C19.0138 16.8053 19.0929 16.571 19.0783 16.3329C19.0637 16.0949 18.9567 15.8719 18.78 15.7117Z" fill="#A5909D"/>
</svg>
